<?xml version="1.0" encoding="UTF-8" standalone="no"?>
<!-- Created with Inkscape (http://www.inkscape.org/) -->

<svg
   width="33.000004mm"
   height="33.000004mm"
   viewBox="0 0 33.000004 33.000004"
   version="1.1"
   id="svg1"
   xml:space="preserve"
   xmlns="http://www.w3.org/2000/svg"
   xmlns:svg="http://www.w3.org/2000/svg"><defs
     id="defs1" /><g
     id="layer1"
     transform="translate(-151.75011,-14.787825)"><path
       d="m 168.25011,47.787828 a 16.500001,16.500001 0 1 0 0,-33.000003 16.500001,16.500001 0 1 0 0,33.000003 z m -2.57812,-11.34375 h 1.54688 v -4.125 h -1.54688 c -0.85723,0 -1.54687,-0.68965 -1.54687,-1.54688 0,-0.85723 0.68964,-1.54687 1.54687,-1.54687 h 3.09375 c 0.85723,0 1.54688,0.68964 1.54688,1.54687 v 5.67188 h 0.51562 c 0.85723,0 1.54688,0.68964 1.54688,1.54687 0,0.85723 -0.68965,1.54688 -1.54688,1.54688 h -5.15625 c -0.85723,0 -1.54687,-0.68965 -1.54687,-1.54688 0,-0.85723 0.68964,-1.54687 1.54687,-1.54687 z m 2.57812,-13.406253 a 2.0625015,2.0625015 0 1 1 0,4.125003 2.0625015,2.0625015 0 1 1 0,-4.125003 z"
       id="path1-5"
       style="stroke-width:0.0644531" /></g></svg>
