<?xml version="1.0" encoding="UTF-8" standalone="no"?>
<svg
   version="1.1"
   width="448"
   height="512"
   viewBox="0 0 448 512"
   xml:space="preserve"
   id="svg1"
   xmlns="http://www.w3.org/2000/svg"
   xmlns:svg="http://www.w3.org/2000/svg">
<desc
   id="desc1">Created with Fabric.js 5.2.4</desc>
<defs
   id="defs1" />


<g
   transform="translate(224,256)"
   id="e27d6958-0e17-4efc-b86e-ee734a13a879">
<path
   style="opacity:1;fill:#f5f5f5;fill-rule:nonzero;stroke:#000000;stroke-width:0;stroke-linecap:butt;stroke-linejoin:miter;stroke-miterlimit:4;stroke-dasharray:none;stroke-dashoffset:0"
   vector-effect="non-scaling-stroke"
   transform="translate(-224,-256)"
   d="M 135.2,17.7 128,32 H 32 C 14.3,32 0,46.3 0,64 0,81.7 14.3,96 32,96 h 384 c 17.7,0 32,-14.3 32,-32 0,-17.7 -14.3,-32 -32,-32 H 320 L 312.8,17.7 C 307.4,6.8 296.3,0 284.2,0 H 163.8 C 151.7,0 140.6,6.8 135.2,17.7 Z M 416,128 H 32 l 21.2,339 c 1.6,25.3 22.6,45 47.9,45 h 245.8 c 25.3,0 46.3,-19.7 47.9,-45 z"
   stroke-linecap="round"
   id="path1" />
</g>
</svg>
