<?xml version="1.0" encoding="UTF-8" standalone="no"?>
<!-- Created with Inkscape (http://www.inkscape.org/) -->

<svg
   width="32.999519mm"
   height="33.000057mm"
   viewBox="0 0 32.999519 33.000057"
   version="1.1"
   id="svg1"
   xml:space="preserve"
   xmlns="http://www.w3.org/2000/svg"
   xmlns:svg="http://www.w3.org/2000/svg"><defs
     id="defs1" /><g
     id="layer1"
     transform="translate(-107.77357,-14.787773)"><path
       id="path4"
       style="fill:#000000;stroke-width:0.102008"
       d="m 124.27333,14.787772 a 16.5,16.5 0 0 0 -16.49976,16.499766 16.5,16.5 0 0 0 16.49976,16.50029 16.5,16.5 0 0 0 16.49977,-16.50029 16.5,16.5 0 0 0 -16.49977,-16.499766 z m 4.51032,8.927104 c 0.48488,0 0.96984,0.184868 1.33997,0.555005 l 1.16686,1.169957 c 0.74028,0.74027 0.74028,1.93915 0,2.67942 l -1.43351,1.4335 -3.84937,-3.84937 1.4335,-1.433507 h 0.003 c 0.37014,-0.370137 0.8551,-0.555005 1.33997,-0.555005 z m -3.44526,2.657722 3.84937,3.84937 -6.9081,6.90501 c -0.30795,0.30795 -0.68991,0.53296 -1.10743,0.65732 l -3.56205,1.04852 c -0.24873,0.0711 -0.51818,0.003 -0.70177,-0.18087 -0.18367,-0.18359 -0.25177,-0.45317 -0.17777,-0.70487 l 1.048,-3.56205 c 0.12437,-0.41752 0.34937,-0.79948 0.65733,-1.10743 z" /></g></svg>
