<?xml version="1.0" encoding="UTF-8" standalone="no"?>
<svg
   viewBox="0 0 125 125"
   version="1.1"
   id="svg1"
   xml:space="preserve"
   width="125"
   height="125"
   xmlns="http://www.w3.org/2000/svg"
   xmlns:svg="http://www.w3.org/2000/svg"><defs
     id="defs1" /><!--!Font Awesome Free 6.6.0 by @fontawesome - https://fontawesome.com License - https://fontawesome.com/license/free Copyright 2024 Fonticons, Inc.--><path
     id="path2-5"
     style="fill:#000000;stroke-width:0.147702"
     d="M 62.5,0 A 62.5,62.5 0 0 0 0,62.5 62.5,62.5 0 0 0 62.5,125 62.5,62.5 0 0 0 125,62.5 62.5,62.5 0 0 0 62.5,0 Z m 31.557,51.46 a 11.045255,11.045255 0 1 1 0,22.09 11.045255,11.045255 0 1 1 0,-22.09 z m -64.446,0.1 a 11.045255,11.045255 0 0 1 12.375,10.96 11.045255,11.045255 0 1 1 -22.089,0 11.045255,11.045255 0 0 1 9.714,-10.96 z m 31.557,0 a 11.045255,11.045255 0 0 1 12.377,10.96 11.045255,11.045255 0 1 1 -22.09,0 11.045255,11.045255 0 0 1 9.713,-10.96 z" /></svg>
