<?xml version="1.0" encoding="UTF-8" standalone="no"?>
<!-- Created with Inkscape (http://www.inkscape.org/) -->

<svg
   width="33.000057mm"
   height="33.000057mm"
   viewBox="0 0 33.000057 33.000057"
   version="1.1"
   id="svg1"
   xml:space="preserve"
   xmlns="http://www.w3.org/2000/svg"
   xmlns:svg="http://www.w3.org/2000/svg"><defs
     id="defs1" /><g
     id="layer1"
     transform="translate(-63.796504,-14.787773)"><path
       id="circle5"
       style="fill:#000000;stroke-width:0.102008"
       d="m 80.296794,14.787772 a 16.5,16.5 0 0 0 -16.50029,16.499766 16.5,16.5 0 0 0 16.50029,16.50029 16.5,16.5 0 0 0 16.499765,-16.50029 16.5,16.5 0 0 0 -16.499765,-16.499766 z m -0.002,8.551416 c 2.86711,0 5.16291,1.305575 6.83421,2.85977 1.66065,1.54001 2.77134,3.38514 3.300055,4.65192 0.1171,0.28032 0.1171,0.59301 0,0.87333 -0.528715,1.26678 -1.639405,3.10836 -3.300055,4.65191 -1.6713,1.5542 -3.9671,2.85977 -6.83421,2.85977 -2.8671,0 -5.16292,-1.30557 -6.83421,-2.85977 -1.66066,-1.54001 -2.77127,-3.38513 -3.29644,-4.65191 -0.1171,-0.28032 -0.1171,-0.59301 0,-0.87333 0.52517,-1.26678 1.63578,-3.11191 3.29644,-4.65192 1.67129,-1.554195 3.96711,-2.85977 6.83421,-2.85977 z m 0,2.83859 a 5.109695,5.109695 0 0 0 -5.10925,5.10976 5.109695,5.109695 0 1 0 10.21901,0 5.109695,5.109695 0 0 0 -5.10976,-5.10976 z m 0.14573,1.70325 c 1.44774,0.0603 2.75012,1.05026 3.14399,2.52284 0.48613,1.81678 -0.5929,3.68675 -2.40967,4.17288 -1.81678,0.48613 -3.68673,-0.59238 -4.17287,-2.40916 -0.0674,-0.24484 -0.10299,-0.48948 -0.11369,-0.73432 -0.007,-0.2058 0.22031,-0.3269 0.41548,-0.26303 0.22709,0.0745 0.46843,0.1173 0.72037,0.1173 1.25258,0 2.27066,-1.01859 2.27066,-2.27118 0,-0.25193 -0.0422,-0.49275 -0.11679,-0.71985 -0.0639,-0.19871 0.0567,-0.42258 0.26252,-0.41548 z" /></g></svg>
