<?xml version="1.0" encoding="UTF-8" standalone="no"?>
<svg
   version="1.1"
   width="464.02502"
   height="448.05002"
   viewBox="0 0 464.02502 448.05002"
   xml:space="preserve"
   id="svg1"
   xmlns="http://www.w3.org/2000/svg"
   xmlns:svg="http://www.w3.org/2000/svg">
<desc
   id="desc1">Created with Fabric.js 5.2.4</desc>
<defs
   id="defs1" />


<g
   transform="translate(232.01001,224.02499)"
   id="8843eb75-4b0e-4472-9e58-984ad7223bbb">
<path
   style="opacity:1;fill:#f5f5f5;fill-rule:nonzero;stroke:#000000;stroke-width:0;stroke-linecap:butt;stroke-linejoin:miter;stroke-miterlimit:4;stroke-dasharray:none;stroke-dashoffset:0"
   vector-effect="non-scaling-stroke"
   transform="translate(-248.01,-256)"
   d="M 125.7,160 H 176 c 17.7,0 32,14.3 32,32 0,17.7 -14.3,32 -32,32 H 48 C 30.3,224 16,209.7 16,192 V 64 C 16,46.3 30.3,32 48,32 65.7,32 80,46.3 80,64 v 51.2 L 97.6,97.6 c 87.5,-87.5 229.3,-87.5 316.8,0 87.5,87.5 87.5,229.3 0,316.8 -87.5,87.5 -229.3,87.5 -316.8,0 -12.5,-12.5 -12.5,-32.8 0,-45.3 12.5,-12.5 32.8,-12.5 45.3,0 62.5,62.5 163.8,62.5 226.3,0 62.5,-62.5 62.5,-163.8 0,-226.3 -62.5,-62.5 -163.8,-62.5 -226.3,0 z"
   stroke-linecap="round"
   id="path1" />
</g>
</svg>
